ffmpeg version 3.4 Copyright (c) 2000-2017 the FFmpeg developers
  built with gcc 7.2.0 (GCC)
  configuration: --prefix=/usr --disable-debug --disable-static --disable-stripping --enable-avisynth --enable-avresample --enable-fontconfig --enable-gmp --enable-gnutls --enable-gpl --enable-ladspa --enable-libass --enable-libbluray --enable-libfreetype --enable-libfribidi --enable-libgsm --enable-libiec61883 --enable-libmodplug --enable-libmp3lame --enable-libopencore_amrnb --enable-libopencore_amrwb --enable-libopenjpeg --enable-libopus --enable-libpulse --enable-libsoxr --enable-libspeex --enable-libssh --enable-libtheora --enable-libv4l2 --enable-libvidstab --enable-libvorbis --enable-libvpx --enable-libwebp --enable-libx264 --enable-libx265 --enable-libxcb --enable-libxvid --enable-shared --enable-version3
  libavutil      55. 78.100 / 55. 78.100
  libavcodec     57.107.100 / 57.107.100
  libavformat    57. 83.100 / 57. 83.100
  libavdevice    57. 10.100 / 57. 10.100
  libavfilter     6.107.100 /  6.107.100
  libavresample   3.  7.  0 /  3.  7.  0
  libswscale      4.  8.100 /  4.  8.100
  libswresample   2.  9.100 /  2.  9.100
  libpostproc    54.  7.100 / 54.  7.100
Splitting the commandline.
Reading option '-v' ... matched as option 'v' (set logging level) with argument 'debug'.
Reading option '-nostdin' ... matched as option 'stdin' (enable or disable interaction on standard input) with argument 0.
Reading option '-progress' ... matched as option 'progress' (write program-readable progress information) with argument '/tmp/KritaFFmpegProgress.eG6034'.
Reading option '-r' ... matched as option 'r' (set frame rate (Hz value, fraction or abbreviation)) with argument '10'.
Reading option '-start_number' ... matched as AVOption 'start_number' with argument '0'.
Reading option '-i' ... matched as input url with argument '/run/media/italo/Data/Ítalo/Games/Unity Projects/Grupo2/Assets/Art/Sprites/Effects/Slash%04d.png'.
Reading option '-i' ... matched as input url with argument '/run/media/italo/Data/Ítalo/Games/Unity Projects/Grupo2/Assets/Art/Sprites/Effects/palette.png'.
Reading option '-lavfi' ... matched as option 'lavfi' (create a complex filtergraph) with argument '[0:v][1:v] paletteuse'.
Reading option '-y' ... matched as option 'y' (overwrite output files) with argument '1'.
Reading option '/run/media/italo/Data/Ítalo/Games/Unity Projects/Grupo2/Assets/Art/Sprites/Effects/Slash.gif' ... matched as output url.
Finished splitting the commandline.
Parsing a group of options: global .
Applying option v (set logging level) with argument debug.
Applying option nostdin (enable or disable interaction on standard input) with argument 0.
Applying option progress (write program-readable progress information) with argument /tmp/KritaFFmpegProgress.eG6034.
[file @ 0x559100320da0] Setting default whitelist 'file,crypto'
Applying option lavfi (create a complex filtergraph) with argument [0:v][1:v] paletteuse.
Applying option y (overwrite output files) with argument 1.
Successfully parsed a group of options.
Parsing a group of options: input url /run/media/italo/Data/Ítalo/Games/Unity Projects/Grupo2/Assets/Art/Sprites/Effects/Slash%04d.png.
Applying option r (set frame rate (Hz value, fraction or abbreviation)) with argument 10.
Successfully parsed a group of options.
Opening an input file: /run/media/italo/Data/Ítalo/Games/Unity Projects/Grupo2/Assets/Art/Sprites/Effects/Slash%04d.png.
[image2 @ 0x5591003212a0] Opening '/run/media/italo/Data/Ítalo/Games/Unity Projects/Grupo2/Assets/Art/Sprites/Effects/Slash0000.png' for reading
[file @ 0x5591003268e0] Setting default whitelist 'file,crypto'
[AVIOContext @ 0x55910032ea60] Statistics: 2822 bytes read, 0 seeks
[image2 @ 0x5591003212a0] Opening '/run/media/italo/Data/Ítalo/Games/Unity Projects/Grupo2/Assets/Art/Sprites/Effects/Slash0001.png' for reading
[file @ 0x5591003272e0] Setting default whitelist 'file,crypto'
[AVIOContext @ 0x559100327540] Statistics: 2913 bytes read, 0 seeks
[image2 @ 0x5591003212a0] Opening '/run/media/italo/Data/Ítalo/Games/Unity Projects/Grupo2/Assets/Art/Sprites/Effects/Slash0002.png' for reading
[file @ 0x559100326fa0] Setting default whitelist 'file,crypto'
[AVIOContext @ 0x5591003286e0] Statistics: 2913 bytes read, 0 seeks
[image2 @ 0x5591003212a0] Opening '/run/media/italo/Data/Ítalo/Games/Unity Projects/Grupo2/Assets/Art/Sprites/Effects/Slash0003.png' for reading
[file @ 0x559100328c20] Setting default whitelist 'file,crypto'
[AVIOContext @ 0x55910032d920] Statistics: 2822 bytes read, 0 seeks
[image2 @ 0x5591003212a0] Opening '/run/media/italo/Data/Ítalo/Games/Unity Projects/Grupo2/Assets/Art/Sprites/Effects/Slash0004.png' for reading
[file @ 0x55910032f6c0] Setting default whitelist 'file,crypto'
[AVIOContext @ 0x559100337820] Statistics: 2858 bytes read, 0 seeks
[image2 @ 0x5591003212a0] Opening '/run/media/italo/Data/Ítalo/Games/Unity Projects/Grupo2/Assets/Art/Sprites/Effects/Slash0005.png' for reading
[file @ 0x55910032fa00] Setting default whitelist 'file,crypto'
[AVIOContext @ 0x55910032fb00] Statistics: 2753 bytes read, 0 seeks
Input #0, image2, from '/run/media/italo/Data/Ítalo/Games/Unity Projects/Grupo2/Assets/Art/Sprites/Effects/Slash%04d.png':
  Duration: 00:00:00.24, start: 0.000000, bitrate: N/A
    Stream #0:0, 6, 1/25: Video: png, 1 reference frame, rgba(pc), 256x256 [SAR 15748:15748 DAR 1:1], 0/1, 25 fps, 25 tbr, 25 tbn, 25 tbc
Successfully opened the file.
Parsing a group of options: input url /run/media/italo/Data/Ítalo/Games/Unity Projects/Grupo2/Assets/Art/Sprites/Effects/palette.png.
Successfully parsed a group of options.
Opening an input file: /run/media/italo/Data/Ítalo/Games/Unity Projects/Grupo2/Assets/Art/Sprites/Effects/palette.png.
[NULL @ 0x5591003297e0] Opening '/run/media/italo/Data/Ítalo/Games/Unity Projects/Grupo2/Assets/Art/Sprites/Effects/palette.png' for reading
[file @ 0x559100325f00] Setting default whitelist 'file,crypto'
Invalid return value 0 for stream protocol
[png_pipe @ 0x5591003297e0] Format png_pipe probed with size=2048 and score=99
[png_pipe @ 0x5591003297e0] Before avformat_find_stream_info() pos: 0 bytes read:190 seeks:0 nb_streams:1
Invalid return value 0 for stream protocol
    Last message repeated 2 times
[png_pipe @ 0x5591003297e0] After avformat_find_stream_info() pos: 190 bytes read:190 seeks:0 frames:1
Input #1, png_pipe, from '/run/media/italo/Data/Ítalo/Games/Unity Projects/Grupo2/Assets/Art/Sprites/Effects/palette.png':
  Duration: N/A, bitrate: N/A
    Stream #1:0, 1, 1/25: Video: png, 1 reference frame, rgba(pc), 16x16 [SAR 1:1 DAR 1:1], 0/1, 25 tbr, 25 tbn, 25 tbc
Successfully opened the file.
detected 4 logical cores
Parsing a group of options: output url /run/media/italo/Data/Ítalo/Games/Unity Projects/Grupo2/Assets/Art/Sprites/Effects/Slash.gif.
Successfully parsed a group of options.
Opening an output file: /run/media/italo/Data/Ítalo/Games/Unity Projects/Grupo2/Assets/Art/Sprites/Effects/Slash.gif.
[file @ 0x559100334220] Setting default whitelist 'file,crypto'
Successfully opened the file.
Stream mapping:
  Stream #0:0 (png) -> paletteuse:default
  Stream #1:0 (png) -> paletteuse:palette
  paletteuse -> Stream #0:0 (gif)
cur_dts is invalid (this is harmless if it occurs once at the start per stream)
    Last message repeated 3 times
Invalid return value 0 for stream protocol
    Last message repeated 1 times
cur_dts is invalid (this is harmless if it occurs once at the start per stream)
    Last message repeated 2 times
[graph 0 input from stream 0:0 @ 0x559100411360] Setting 'video_size' to value '256x256'
[graph 0 input from stream 0:0 @ 0x559100411360] Setting 'pix_fmt' to value '28'
[graph 0 input from stream 0:0 @ 0x559100411360] Setting 'time_base' to value '1/10'
[graph 0 input from stream 0:0 @ 0x559100411360] Setting 'pixel_aspect' to value '15748/15748'
[graph 0 input from stream 0:0 @ 0x559100411360] Setting 'sws_param' to value 'flags=2'
[graph 0 input from stream 0:0 @ 0x559100411360] Setting 'frame_rate' to value '10/1'
[graph 0 input from stream 0:0 @ 0x559100411360] w:256 h:256 pixfmt:rgba tb:1/10 fr:10/1 sar:15748/15748 sws_param:flags=2
[graph 0 input from stream 1:0 @ 0x559100411860] Setting 'video_size' to value '16x16'
[graph 0 input from stream 1:0 @ 0x559100411860] Setting 'pix_fmt' to value '28'
[graph 0 input from stream 1:0 @ 0x559100411860] Setting 'time_base' to value '1/25'
[graph 0 input from stream 1:0 @ 0x559100411860] Setting 'pixel_aspect' to value '1/1'
[graph 0 input from stream 1:0 @ 0x559100411860] Setting 'sws_param' to value 'flags=2'
[graph 0 input from stream 1:0 @ 0x559100411860] Setting 'frame_rate' to value '25/1'
[graph 0 input from stream 1:0 @ 0x559100411860] w:16 h:16 pixfmt:rgba tb:1/25 fr:25/1 sar:1/1 sws_param:flags=2
[format @ 0x559100411440] compat: called with args=[rgb8|bgr8|rgb4_byte|bgr4_byte|gray|pal8]
[format @ 0x559100411440] Setting 'pix_fmts' to value 'rgb8|bgr8|rgb4_byte|bgr4_byte|gray|pal8'
[auto_scaler_0 @ 0x559100413ce0] w:iw h:ih flags:'bilinear' interl:0
[Parsed_paletteuse_0 @ 0x55910038fc80] auto-inserting filter 'auto_scaler_0' between the filter 'graph 0 input from stream 0:0' and the filter 'Parsed_paletteuse_0'
[auto_scaler_1 @ 0x559100414fc0] w:iw h:ih flags:'bilinear' interl:0
[Parsed_paletteuse_0 @ 0x55910038fc80] auto-inserting filter 'auto_scaler_1' between the filter 'graph 0 input from stream 1:0' and the filter 'Parsed_paletteuse_0'
[AVFilterGraph @ 0x55910038f2c0] query_formats: 5 queried, 2 merged, 2 already done, 0 delayed
[swscaler @ 0x5591004165c0] Forcing full internal H chroma due to input having non subsampled chroma
[auto_scaler_0 @ 0x559100413ce0] w:256 h:256 fmt:rgba sar:15748/15748 -> w:256 h:256 fmt:bgra sar:1/1 flags:0x2
[swscaler @ 0x55910042d3c0] Forcing full internal H chroma due to input having non subsampled chroma
[auto_scaler_1 @ 0x559100414fc0] w:16 h:16 fmt:rgba sar:1/1 -> w:16 h:16 fmt:bgra sar:1/1 flags:0x2
[Parsed_paletteuse_0 @ 0x55910038fc80] [framesync @ 0x55910038fd88] Selected 1/50 time base
[Parsed_paletteuse_0 @ 0x55910038fc80] [framesync @ 0x55910038fd88] Sync level 2
Output #0, gif, to '/run/media/italo/Data/Ítalo/Games/Unity Projects/Grupo2/Assets/Art/Sprites/Effects/Slash.gif':
  Metadata:
    encoder         : Lavf57.83.100
    Stream #0:0, 0, 1/100: Video: gif, 1 reference frame, pal8, 256x256 [SAR 1:1 DAR 1:1], 0/1, q=2-31, 200 kb/s, 10 fps, 100 tbn, 10 tbc (default)
    Metadata:
      encoder         : Lavc57.107.100 gif
Clipping frame in rate conversion by 0.000008
[gif @ 0x5591003333c0] 172x172 image at pos (23;60) [area:256x256]
[gif @ 0x5591003333c0] 1x1 image at pos (255;255) [area:256x256]
[gif @ 0x5591003333c0] 172x172 image at pos (23;60) [area:256x256]
    Last message repeated 2 times
[Parsed_paletteuse_0 @ 0x55910038fc80] [framesync @ 0x55910038fd88] Sync level 0
[out_0_0 @ 0x559100412120] EOF on sink link out_0_0:default.
No more output streams to write to, finishing.
frame=    6 fps=0.0 q=-0.0 Lsize=       5kB time=00:00:00.51 bitrate=  72.5kbits/s speed=21.6x    
[AVIOContext @ 0x5591003210c0] Statistics: 0 seeks, 1 writeouts
video:4kB audio:0kB subtitle:0kB other streams:0kB global headers:0kB muxing overhead: 22.507954%
Input file #0 (/run/media/italo/Data/Ítalo/Games/Unity Projects/Grupo2/Assets/Art/Sprites/Effects/Slash%04d.png):
  Input stream #0:0 (video): 6 packets read (17081 bytes); 6 frames decoded; 
  Total: 6 packets (17081 bytes) demuxed
Input file #1 (/run/media/italo/Data/Ítalo/Games/Unity Projects/Grupo2/Assets/Art/Sprites/Effects/palette.png):
  Input stream #1:0 (video): 1 packets read (190 bytes); 1 frames decoded; 
  Total: 1 packets (190 bytes) demuxed
Output file #0 (/run/media/italo/Data/Ítalo/Games/Unity Projects/Grupo2/Assets/Art/Sprites/Effects/Slash.gif):
  Output stream #0:0 (video): 6 frames encoded; 6 packets muxed (3772 bytes); 
  Total: 6 packets (3772 bytes) muxed
7 frames successfully decoded, 0 decoding errors
[AVIOContext @ 0x559100334440] Statistics: 0 seeks, 2 writeouts
[AVIOContext @ 0x559100325c60] Statistics: 190 bytes read, 0 seeks
